<svg xmlns="http://www.w3.org/2000/svg" width="16" height="16" fill="currentColor" class="bi bi-instagram" viewBox="0 0 16 16">
<path d="M15.5,5.1L8.4,0.4c-0.2-0.1-0.5-0.2-0.7,0L0.5,5.1C0.4,5.2,0.2,5.4,0.2,5.6v4.7c0,0.2,0.1,0.4,0.3,0.6l7.1,4.7
	c0.2,0.1,0.5,0.2,0.7,0l7.1-4.7c0.2-0.1,0.3-0.3,0.3-0.6V5.6C15.7,5.4,15.6,5.2,15.5,5.1L15.5,5.1z M8.7,2.2l5.2,3.5l-2.3,1.6
	L8.7,5.3V2.2z M7.3,2.2v3.1L4.4,7.2L2.1,5.6L7.3,2.2z M1.6,6.9L3.3,8L1.6,9.1V6.9L1.6,6.9z M7.3,13.8l-5.2-3.5l2.3-1.6l2.9,1.9V13.8
	z M8,9.6L5.6,8L8,6.4L10.4,8L8,9.6z M8.7,13.8v-3.1l2.9-1.9l2.3,1.6L8.7,13.8z M14.4,9.1L12.7,8l1.7-1.1V9.1L14.4,9.1z"/>
</svg>
