<svg xmlns="http://www.w3.org/2000/svg" width="100" height="100" viewBox="0 0 100 100">
  <path fill="currentColor" d="M57.744,8.886c1.89,-0.949 4.413,-0.949 6.457,0.154c3.309,1.574 6.302,5.671 6.773,9.298c0.632,4.568 -3.78,5.671 -7.56,5.833c-2.361,0.154 -5.354,0 -7.406,-1.42c-5.516,-3.31 -3.309,-11.35 1.736,-13.865Zm-43.392,68.794c9.064,-7.831 28.457,-8.449 42.605,-5.825c12.304,2.284 31.79,6.821 36.719,19.467c0.224,0.563 1.011,0.664 1.381,0.162c4.212,-5.679 2.067,-11.913 -1.983,-16.944c-2.26,-2.808 -5.107,-5.239 -7.776,-6.998c-11.062,-7.886 -23.235,-10.401 -33.271,-10.794l8.439,-10.764c-2.229,-0.525 -4.181,-0.278 -5.801,0.301c-2.399,0.856 -4.073,2.431 -4.86,3.279l-2.947,3.148l-4.011,4.228c-7.267,0.586 -12.034,1.998 -12.034,1.998c-8.887,2.307 -17.233,6.713 -22.764,13.233c-4.636,5.47 -10.098,19.83 1.651,19.428c0.424,-0.015 0.802,-0.031 1.072,-0.054c0.27,-0.023 7.467,-0.417 19.37,-7.662c0,0 1.234,-0.833 2.769,-1.906c1.535,-1.073 3.587,-2.747 5.176,-4.259c1.589,-1.512 3.61,-3.279 3.271,-3.542c-0.34,-0.262 -1.959,0.787 -3.433,1.566c-1.211,0.563 -1.836,0.903 -2.731,1.265c-4.821,1.991 -9.82,3.981 -14.988,5.478c-2.067,0.664 -9.118,2.801 -9.99,0.995c-0.686,-1.674 1.281,-3.356 4.135,-5.81l0,0.008Zm60.818,-45.269c-7.606,0.285 -13.855,-3.781 -20.504,-6.875c-6.92,-3.302 -14.711,-5.162 -22.355,-3.819c-3.464,0.602 -7.359,1.705 -10.314,3.356c-2.954,1.651 -9.488,6.373 -11.91,17.152c-0.177,1.096 1.072,1.852 1.952,1.165c0,0 5.955,-4.568 6.534,-5.131c0.579,-0.563 1.203,-1.15 1.327,-1.327c0.069,-0.1 0.255,-1.019 0.278,-1.127c0.255,-1.242 1.296,-2.184 2.484,-2.631c8.64,-3.272 19.594,1.535 27.755,6.142c0.447,0.262 0.895,0.525 1.342,0.772c0.039,0.023 0.077,0.046 0.108,0.062c2.368,1.296 4.814,2.338 7.421,2.77c7.035,1.165 14.456,-1.235 20.573,-5.2c2.06,-1.397 3.942,-2.963 5.631,-4.691c0.918,-0.918 1.82,-1.975 2.368,-3.48c0.116,-0.316 -0.208,-0.617 -0.517,-0.486c-3.718,1.62 -7.938,2.685 -9.288,3.009c-1.443,0.347 -2.893,0.332 -2.893,0.332l0.008,0.008Z" />
</svg>